<?xml version="1.0" encoding="UTF-8" standalone="no"?>
<!DOCTYPE svg PUBLIC "-//W3C//DTD SVG 1.1//EN" "http://www.w3.org/Graphics/SVG/1.1/DTD/svg11.dtd">
<svg width="100%" height="100%" viewBox="0 0 200 50" version="1.1" xmlns="http://www.w3.org/2000/svg" xmlns:xlink="http://www.w3.org/1999/xlink" xml:space="preserve" xmlns:serif="http://www.serif.com/" style="fill-rule:evenodd;clip-rule:evenodd;stroke-linejoin:round;stroke-miterlimit:2;">
    <g id="Group">
        <g id="Group_2">
            <path id="Vector" d="M24.721,0.911L24.721,6.51L6.312,6.51L6.312,17.578L21.433,17.578L21.433,22.917L6.312,22.917L6.312,39.193L0,39.193L0,0.911L24.721,0.911Z" style="fill:rgb(144,28,28);fill-rule:nonzero;"/>
            <path id="Vector_2" d="M34.583,1.042C35.24,1.693 35.635,2.604 35.635,3.646C35.635,4.688 35.24,5.469 34.583,6.12C33.925,6.771 33.005,7.161 31.953,7.161C30.901,7.161 30.112,6.771 29.323,6.12C28.666,5.469 28.271,4.557 28.271,3.646C28.271,2.604 28.666,1.823 29.323,1.042C29.98,0.391 30.901,0 31.953,0C33.005,0 33.794,0.391 34.583,1.042ZM34.846,11.198L34.846,39.193L28.929,39.193L28.929,11.198L34.846,11.198Z" style="fill:rgb(144,28,28);fill-rule:nonzero;"/>
            <path id="Vector_3" d="M43.261,36.979C40.894,35.286 39.711,32.943 39.711,29.948L45.496,29.948C45.628,31.38 46.285,32.682 47.6,33.594C48.915,34.505 50.493,35.026 52.466,35.026C54.306,35.026 55.753,34.635 56.936,33.984C58.12,33.333 58.646,32.422 58.646,31.25C58.646,30.339 58.383,29.688 57.857,29.167C57.331,28.646 56.673,28.385 55.753,28.125C54.832,27.865 53.517,27.734 51.808,27.474L51.676,27.474L50.888,27.344C48.652,27.083 46.68,26.693 45.233,26.172C43.787,25.651 42.472,24.87 41.683,23.828C40.763,22.787 40.368,21.484 40.368,19.662C40.368,17.969 40.894,16.406 41.815,15.104C42.735,13.802 44.181,12.76 45.891,11.979C47.6,11.198 49.573,10.938 51.808,10.938C55.358,10.938 58.251,11.719 60.355,13.281C62.59,14.844 63.774,17.057 63.905,19.922L58.12,19.922C57.988,18.62 57.331,17.578 56.147,16.797C54.964,16.016 53.517,15.495 51.808,15.495C50.099,15.495 48.652,15.885 47.732,16.537C46.68,17.188 46.154,18.099 46.154,19.271C46.154,20.052 46.417,20.703 46.811,21.094C47.337,21.484 47.995,21.745 48.784,22.005C49.573,22.135 50.756,22.396 52.334,22.526L52.86,22.526C55.358,22.787 57.331,23.177 59.04,23.698C60.618,24.219 62.064,25 62.985,26.172C64.037,27.344 64.563,28.906 64.563,30.859C64.563,32.552 64.037,34.115 62.985,35.417C61.933,36.719 60.487,37.76 58.646,38.542C56.805,39.193 54.832,39.583 52.466,39.583C48.652,39.453 45.628,38.672 43.261,36.979Z" style="fill:rgb(144,28,28);fill-rule:nonzero;"/>
            <path id="Vector_4" d="M75.345,0.911L75.345,17.969L74.425,16.667C75.345,14.974 76.66,13.542 78.238,12.5C79.816,11.458 81.788,10.937 84.287,10.937C87.706,10.937 90.467,11.979 92.571,13.932C94.675,16.015 95.727,19.271 95.727,23.828L95.727,39.193L89.809,39.193L89.809,24.089C89.809,21.484 89.283,19.401 88.1,17.969C86.917,16.536 85.207,15.885 83.103,15.885C81.525,15.885 80.211,16.276 79.027,16.927C77.844,17.708 77.055,18.75 76.397,20.052C75.74,21.354 75.477,23.047 75.477,24.87L75.477,39.062L69.56,39.062L69.56,0.911L75.345,0.911Z" style="fill:rgb(144,28,28);fill-rule:nonzero;"/>
        </g>
        <g id="Group_3">
            <path id="Vector_5" d="M149.507,11.198L157.396,32.813L165.023,11.198L171.335,11.198L158.58,43.49C157.922,45.183 157.265,46.484 156.739,47.396C156.213,48.308 155.555,48.959 154.635,49.349C153.846,49.74 152.794,50 151.348,50L144.905,50L144.905,44.792L149.112,44.792C149.901,44.792 150.559,44.662 150.953,44.531C151.348,44.401 151.742,44.141 152.005,43.75C152.268,43.359 152.531,42.709 152.926,41.927L154.109,39.193L143.064,11.068L149.507,11.068L149.507,11.198Z" style="fill:rgb(144,28,28);fill-rule:nonzero;"/>
            <path id="Vector_6" d="M179.224,37.63C176.989,36.458 175.279,34.766 174.096,32.682C172.913,30.469 172.255,27.995 172.255,25.13C172.255,22.266 172.781,19.662 173.965,17.578C175.148,15.495 176.726,13.802 178.83,12.63C180.934,11.458 183.3,10.807 186.062,10.807C188.823,10.807 191.19,11.328 193.294,12.37C195.398,13.412 196.976,14.974 198.159,17.057C199.343,19.141 200,21.485 200,24.089L200,25.13C200,25.521 200,25.912 199.869,26.302L178.567,26.302L178.567,26.563C178.698,28.125 178.961,29.557 179.619,30.729C180.276,31.901 181.197,32.813 182.38,33.464C183.563,34.115 184.878,34.505 186.456,34.505C188.297,34.505 189.875,34.115 191.059,33.203C192.373,32.292 193.162,31.12 193.557,29.557L199.606,29.557C199.211,31.38 198.554,33.073 197.37,34.505C196.187,35.938 194.74,37.109 193.031,38.021C191.19,38.802 189.218,39.323 186.982,39.323C184.089,39.453 181.46,38.802 179.224,37.63ZM182.775,16.406C181.723,16.927 180.802,17.708 180.145,18.75C179.487,19.792 178.961,20.833 178.83,22.136L193.951,22.136C193.688,20.052 192.899,18.36 191.585,17.318C190.27,16.146 188.429,15.625 186.325,15.625C185.141,15.495 183.958,15.886 182.775,16.406Z" style="fill:rgb(144,28,28);fill-rule:nonzero;"/>
        </g>
        <path id="Vector_7" d="M135.437,7.943L129.257,7.943L125.707,4.036L114.004,4.036L110.454,7.943L104.273,7.943C102.17,7.943 100.329,9.635 100.329,11.849L100.329,35.026C100.329,37.109 102.038,38.932 104.273,38.932L135.437,38.932C137.541,38.932 139.382,37.24 139.382,35.026L139.382,11.719C139.382,9.635 137.672,7.943 135.437,7.943ZM135.437,34.896L104.405,34.896L104.405,11.719L112.294,11.719L115.845,7.812L124.129,7.812L127.548,11.719L135.437,11.719L135.437,34.896ZM119.921,13.672C114.53,13.672 110.191,17.969 110.191,23.307C110.191,28.646 114.53,32.943 119.921,32.943C125.312,32.943 129.651,28.646 129.651,23.307C129.651,17.969 125.312,13.672 119.921,13.672ZM119.921,29.167C116.765,29.167 114.135,26.562 114.135,23.437C114.135,20.312 116.765,17.708 119.921,17.708C123.077,17.708 125.707,20.312 125.707,23.437C125.707,26.562 123.077,29.167 119.921,29.167Z" style="fill:rgb(144,28,28);fill-rule:nonzero;"/>
    </g>
</svg>
